<?xml version="1.0" encoding="UTF-8"?>
<svg xmlns="http://www.w3.org/2000/svg" id="Layer_1" data-name="Layer 1" viewBox="0 0 24 24">
  <path d="m24,8v-3h-2.036c-.22-1.53-1.434-2.744-2.964-2.964V0h-3v2h-2.5V0h-3v2h-2.5V0h-3v2.036c-1.53.22-2.744,1.434-2.964,2.964H0v3h2v2.5H0v3h2v2.5H0v3h2v3h3v2h3v-2h2.5v2h3v-2h2.5v2h3v-2h3v-3h2v-3h-2v-2.5h2v-3h-2v-2.5h2Zm-5,11H5V5.5c0-.275.224-.5.5-.5h13c.276,0,.5.225.5.5v13.5ZM10.876,7.18c-1.313-.55-2.651.221-2.937,1.458l-1.939,8.362h2.053l.232-1h3.43l.232,1h2.053l-1.922-8.291c-.154-.662-.575-1.266-1.202-1.528Zm-2.127,6.82l1.138-4.91c.012-.053.059-.09.113-.09s.101.037.113.09l1.138,4.91h-2.503Zm6.251-7h2v10h-2V7Z"/>
</svg>
